<svg xmlns="http://www.w3.org/2000/svg" viewBox="0 0 480 340" width="480" height="340">
<rect width="480" height="340" fill="#fff"/>
<path fill="none" stroke="#111" stroke-width="2.5" stroke-linejoin="round" stroke-linecap="round" d="M50.0,120.0 L100.0,120.0"/><path fill="none" stroke="#111" stroke-width="2.5" stroke-linejoin="round" stroke-linecap="round" d="M100.0,50.0 L100.0,190.0"/><path fill="none" stroke="#111" stroke-width="2.5" stroke-linejoin="round" stroke-linecap="round" d="M100.0,50.0 L135.0,50.0"/><path fill="none" stroke="#111" stroke-width="2.5" stroke-linejoin="round" stroke-linecap="round" d="M135.0,50.0 L138.8,58.0 L146.2,42.0 L153.8,58.0 L161.2,42.0 L168.8,58.0 L176.2,42.0 L183.8,58.0 L191.2,42.0 L195.0,50.0"/><path fill="none" stroke="#111" stroke-width="2.5" stroke-linejoin="round" stroke-linecap="round" d="M195.0,50.0 L240.0,50.0"/><path fill="none" stroke="#111" stroke-width="2.5" stroke-linejoin="round" stroke-linecap="round" d="M240.0,50.0 L275.0,50.0"/><path fill="none" stroke="#111" stroke-width="2.5" stroke-linejoin="round" stroke-linecap="round" d="M275.0,50.0 L278.8,58.0 L286.2,42.0 L293.8,58.0 L301.2,42.0 L308.8,58.0 L316.2,42.0 L323.8,58.0 L331.2,42.0 L335.0,50.0"/><path fill="none" stroke="#111" stroke-width="2.5" stroke-linejoin="round" stroke-linecap="round" d="M335.0,50.0 L380.0,50.0"/><path fill="none" stroke="#111" stroke-width="2.5" stroke-linejoin="round" stroke-linecap="round" d="M100.0,190.0 L135.0,190.0"/><path fill="none" stroke="#111" stroke-width="2.5" stroke-linejoin="round" stroke-linecap="round" d="M135.0,190.0 L138.8,198.0 L146.2,182.0 L153.8,198.0 L161.2,182.0 L168.8,198.0 L176.2,182.0 L183.8,198.0 L191.2,182.0 L195.0,190.0"/><path fill="none" stroke="#111" stroke-width="2.5" stroke-linejoin="round" stroke-linecap="round" d="M195.0,190.0 L240.0,190.0"/><path fill="none" stroke="#111" stroke-width="2.5" stroke-linejoin="round" stroke-linecap="round" d="M240.0,190.0 L275.0,190.0"/><path fill="none" stroke="#111" stroke-width="2.5" stroke-linejoin="round" stroke-linecap="round" d="M275.0,190.0 L278.8,198.0 L286.2,182.0 L293.8,198.0 L301.2,182.0 L308.8,198.0 L316.2,182.0 L323.8,198.0 L331.2,182.0 L335.0,190.0"/><path fill="none" stroke="#111" stroke-width="2.5" stroke-linejoin="round" stroke-linecap="round" d="M335.0,190.0 L380.0,190.0"/><path fill="none" stroke="#111" stroke-width="2.5" stroke-linejoin="round" stroke-linecap="round" d="M240.0,50.0 L240.0,190.0"/><path fill="none" stroke="#111" stroke-width="2.5" stroke-linejoin="round" stroke-linecap="round" d="M380.0,50.0 L380.0,190.0"/><path fill="none" stroke="#111" stroke-width="2.5" stroke-linejoin="round" stroke-linecap="round" d="M380.0,120.0 L430.0,120.0"/><path fill="none" stroke="#111" stroke-width="2.5" stroke-linejoin="round" stroke-linecap="round" d="M50.0,120.0 L50.0,280.0 L234.0,280.0"/><path fill="none" stroke="#111" stroke-width="2.5" stroke-linejoin="round" stroke-linecap="round" d="M234.0,260.0 L234.0,300.0"/><path fill="none" stroke="#111" stroke-width="2.5" stroke-linejoin="round" stroke-linecap="round" d="M246,270 L246,290"/><path fill="none" stroke="#111" stroke-width="2.5" stroke-linejoin="round" stroke-linecap="round" d="M246.0,280.0 L430.0,280.0 L430.0,120.0"/>
<circle cx="100" cy="120" r="3.5" fill="#111" stroke="#111" stroke-width="2"/>
<circle cx="380" cy="120" r="3.5" fill="#111" stroke="#111" stroke-width="2"/>
<circle cx="240" cy="50" r="3.5" fill="#111" stroke="#111" stroke-width="2"/>
<circle cx="240" cy="190" r="3.5" fill="#111" stroke="#111" stroke-width="2"/>
<text x="165" y="32" font-family="Arial, Helvetica, sans-serif" fill="#111" font-size="18" text-anchor="middle">1 Ω</text>
<text x="305" y="32" font-family="Arial, Helvetica, sans-serif" fill="#111" font-size="18" text-anchor="middle">2 Ω</text>
<text x="165" y="222" font-family="Arial, Helvetica, sans-serif" fill="#111" font-size="18" text-anchor="middle">3 Ω</text>
<text x="305" y="222" font-family="Arial, Helvetica, sans-serif" fill="#111" font-size="18" text-anchor="middle">4 Ω</text>
<text x="240" y="36" font-family="Arial, Helvetica, sans-serif" fill="#111" font-size="18" text-anchor="middle">C</text>
<text x="256" y="180" font-family="Arial, Helvetica, sans-serif" fill="#111" font-size="18" text-anchor="start">D</text>
<text x="40" y="110" font-family="Arial, Helvetica, sans-serif" fill="#111" font-size="18" text-anchor="middle">A</text>
<text x="442" y="110" font-family="Arial, Helvetica, sans-serif" fill="#111" font-size="18" text-anchor="middle">B</text>
<text x="240" y="330" font-family="Arial, Helvetica, sans-serif" fill="#111" font-size="18" text-anchor="middle">50 V</text>
</svg>
