<svg xmlns="http://www.w3.org/2000/svg" viewBox="0 0 440 280" width="440" height="280">
<rect width="440" height="280" fill="#fff"/>
<path fill="none" stroke="#111" stroke-width="2.5" stroke-linejoin="round" stroke-linecap="round" d="M60.0,50.0 L60.0,230.0"/><path fill="none" stroke="#111" stroke-width="2.5" stroke-linejoin="round" stroke-linecap="round" d="M380.0,50.0 L380.0,230.0"/><path fill="none" stroke="#111" stroke-width="2.5" stroke-linejoin="round" stroke-linecap="round" d="M60.0,50.0 L144.0,50.0"/><path fill="none" stroke="#111" stroke-width="2.5" stroke-linejoin="round" stroke-linecap="round" d="M144.0,30.0 L144.0,70.0"/><path fill="none" stroke="#111" stroke-width="2.5" stroke-linejoin="round" stroke-linecap="round" d="M156.0,30.0 L156.0,70.0"/><path fill="none" stroke="#111" stroke-width="2.5" stroke-linejoin="round" stroke-linecap="round" d="M156.0,50.0 L284.0,50.0"/><path fill="none" stroke="#111" stroke-width="2.5" stroke-linejoin="round" stroke-linecap="round" d="M284.0,30.0 L284.0,70.0"/><path fill="none" stroke="#111" stroke-width="2.5" stroke-linejoin="round" stroke-linecap="round" d="M296.0,30.0 L296.0,70.0"/><path fill="none" stroke="#111" stroke-width="2.5" stroke-linejoin="round" stroke-linecap="round" d="M296.0,50.0 L380.0,50.0"/><path fill="none" stroke="#111" stroke-width="2.5" stroke-linejoin="round" stroke-linecap="round" d="M60.0,140.0 L214.0,140.0"/><path fill="none" stroke="#111" stroke-width="2.5" stroke-linejoin="round" stroke-linecap="round" d="M214.0,120.0 L214.0,160.0"/><path fill="none" stroke="#111" stroke-width="2.5" stroke-linejoin="round" stroke-linecap="round" d="M226.0,120.0 L226.0,160.0"/><path fill="none" stroke="#111" stroke-width="2.5" stroke-linejoin="round" stroke-linecap="round" d="M226.0,140.0 L380.0,140.0"/><path fill="none" stroke="#111" stroke-width="2.5" stroke-linejoin="round" stroke-linecap="round" d="M60.0,230.0 L214.0,230.0"/><path fill="none" stroke="#111" stroke-width="2.5" stroke-linejoin="round" stroke-linecap="round" d="M214.0,210.0 L214.0,250.0"/><path fill="none" stroke="#111" stroke-width="2.5" stroke-linejoin="round" stroke-linecap="round" d="M226,220 L226,240"/><path fill="none" stroke="#111" stroke-width="2.5" stroke-linejoin="round" stroke-linecap="round" d="M226.0,230.0 L380.0,230.0"/>
<text x="150" y="22" font-family="Arial, Helvetica, sans-serif" fill="#111" font-size="18" text-anchor="middle" font-style="italic">P</text>
<text x="290" y="22" font-family="Arial, Helvetica, sans-serif" fill="#111" font-size="18" text-anchor="middle" font-style="italic">Q</text>
<text x="220" y="185" font-family="Arial, Helvetica, sans-serif" fill="#111" font-size="18" text-anchor="middle" font-style="italic">S</text>
<text x="220" y="272" font-family="Arial, Helvetica, sans-serif" fill="#111" font-size="18" text-anchor="middle" font-style="italic">V</text>
</svg>
